<?xml version="1.0" encoding="UTF-8"?>
<svg id="Layer_1" data-name="Layer 1" xmlns="http://www.w3.org/2000/svg" viewBox="0 0 1434.34 868.11">
  <defs>
    <style>
      .cls-1 {
        fill: none;
        stroke: #f4faff;
        stroke-miterlimit: 10;
        stroke-width: 9px;
      }

      .cls-2 {
        fill: #f4faff;
      }
    </style>
  </defs>
  <path class="cls-2" d="m13.04,398.49h858.66c17.37,0,17.4-27,0-27H13.04c-17.37,0-17.4,27,0,27h0Z"/>
  <path d="m1433.37,868.11c1.29,0,1.29-2,0-2s-1.29,2,0,2h0Z"/>
  <path class="cls-2" d="m132.03,384.79c22.85-68.91,56.03-133.68,91.85-196.64,17.32-30.44,34.82-60.89,53.3-90.64,14.52-23.39,31.16-47.63,54.63-62.88,11.14-7.24,23.81-12.39,37.14-13.49,17.19-1.41,34.14,2.63,49.96,9.19,29.98,12.44,57.4,32.79,82.71,52.84,51.12,40.49,95.96,88.21,138.02,137.87s82.39,102.56,124.2,153.34c5.12,6.21,10.26,12.4,15.44,18.56,3.65,4.34,11.08,3.77,14.85,0,4.3-4.3,3.66-10.5,0-14.85-43.4-51.61-84.2-105.33-127.31-157.19-42.7-51.37-87.85-101.13-139.46-143.76-26.38-21.79-54.42-43.17-84.93-58.85-31.14-16-67.51-25.21-101.35-11.89-28.72,11.31-50.03,34.07-67.62,58.72-19.63,27.49-35.93,57.56-52.9,86.72-37.67,64.71-73.44,130.88-99.59,201.2-3.22,8.67-6.28,17.39-9.19,26.17-4.26,12.86,16.01,18.37,20.25,5.58h0Z"/>
  <circle class="cls-1" cx="373.01" cy="84.46" r="62.25"/>
  <path class="cls-2" d="m321.26,132.22c-37.88,56.37-60.12,122.74-64.41,190.48-1.22,19.26-.92,38.57.82,57.79.58,6.36,10.58,6.42,10,0-6.02-66.42,5.9-134.18,34.47-194.48,8.02-16.92,17.32-33.2,27.76-48.74,3.6-5.36-5.06-10.37-8.63-5.05h0Z"/>
  <path class="cls-2" d="m291.71,203.8c20.4,14.89,40.3,30.37,60.05,46.11,3.69,2.94,7.53,5.54,12.45,3.94,5.51-1.8,10.84-5.47,15.96-8.15,11.48-6,22.97-12,34.45-17.99,5.71-2.98.66-11.61-5.05-8.63-10.01,5.23-20.02,10.46-30.04,15.69-5.01,2.61-10.01,5.23-15.02,7.84-3.72,1.94-4.97.81-7.97-1.6-2.28-1.83-4.56-3.66-6.85-5.48-17.36-13.82-35.02-27.27-52.95-40.35-5.2-3.8-10.2,4.87-5.05,8.63h0Z"/>
  <path class="cls-2" d="m457.63,146.55c4.52,13.33,3.97,27.11-1.43,40.09-1.27,3.05,1.9,6.36,4.82,6.33,19.59-.2,38.26,7.55,51.94,21.58l2.21-8.36c-31.41,9.55-62.82,19.1-94.24,28.64-6.14,1.87-3.52,11.52,2.66,9.64,31.41-9.55,62.82-19.1,94.24-28.64,3.61-1.1,4.88-5.62,2.21-8.36-15.46-15.85-36.87-24.74-59.01-24.51l4.82,6.33c6-14.45,6.45-30.61,1.43-45.41-2.06-6.06-11.72-3.46-9.64,2.66h0Z"/>
  <path class="cls-2" d="m454.77,138.35c-25.82,18.69-50.23,39.24-72.97,61.58-2.82,2.77-1.26,7.16,2.21,8.36,10.06,3.48,19,9.8,25.48,18.28,3.86,5.05,12.54.07,8.63-5.05-8.17-10.7-18.71-18.46-31.46-22.87l2.21,8.36c22.13-21.74,45.81-41.82,70.95-60.01,5.16-3.74.18-12.42-5.05-8.63h0Z"/>
  <path class="cls-2" d="m408.53,227.48c3.29,4.98,5.05,10.33,5.16,16.31.12,6.43,10.12,6.45,10,0-.14-7.64-2.31-14.97-6.53-21.36-3.53-5.35-12.2-.34-8.63,5.05h0Z"/>
  <path class="cls-2" d="m267.24,378.83c14.3-22.24,28.21-44.83,43.77-66.23,7.53-10.36,15.54-20.38,24.27-29.76,4.1-4.41,8.36-8.68,12.8-12.76,4.71-4.34,9.45-9.89,16.28-9.92,13.05-.06,27.31,4.27,39.65,8.19,13.26,4.21,25.9,9.9,38.08,16.6,22.72,12.51,44.38,27.22,64.7,43.32,22.73,18.02,43.85,37.99,63.2,59.6,4.3,4.8,11.35-2.29,7.07-7.07-36.31-40.56-79.2-75.82-126.63-102.65-25.13-14.21-52.41-24.16-81.17-27.58-5.8-.69-11.38-.56-16.48,2.61-5.45,3.39-10.3,8.35-14.91,12.76-9.55,9.14-18.25,19.12-26.38,29.53-19.4,24.83-35.86,51.83-52.88,78.3-3.49,5.43,5.16,10.45,8.63,5.05h0Z"/>
  <path class="cls-2" d="m441.59,161.86c-2.08,10.6-4.99,20.96-8.73,31.09l19.29,5.32c1.9-8.62,4.17-17.12,6.82-25.54,3.42-10.84-12.73-17.54-18.28-7.71-7.51,13.3-11.68,27.77-12.68,42.99-.75,11.46,16.63,13.29,19.64,2.66,1.43-5.04,1.37-9.67.59-14.8-.65-4.27-5.63-7.34-9.64-7.34-4.5,0-8.31,3.13-9.64,7.34-1.84,5.81-3.68,11.62-5.52,17.42l19.29,5.32,1.01-4.82c2.64-12.54-16.55-17.93-19.29-5.32-1.82,8.4-2.96,21.14,7.91,23.71,5.67,1.34,9.88-1.83,13.26-5.92,1.65-2,2.97-2.97,5.54-3.57l-7.71-18.28c-8.49,5.61-17.4,10.46-26.72,14.55l10.09,17.27c5.94-3.64,12.07-5.78,18.95-6.89-3.24-5.57-6.49-11.14-9.73-16.71-4.7,3.97-10.25,6.05-16.24,7.13-10.96,1.97-8.57,20.97,2.66,19.64,12.32-1.45,23.9-5.42,35.69-9.11s23.88-7.47,35.83-11.2,7.02-23.14-5.32-19.29c-11.31,3.54-22.63,7.07-33.94,10.61-10.48,3.28-21.3,7.69-32.26,8.98l2.66,19.64c9.47-1.7,17.76-6.11,25.07-12.27,3.35-2.82,3.66-8.53,1.56-12.12-2.4-4.1-6.86-5.31-11.29-4.6-8.43,1.35-16.45,4.45-23.73,8.9-4.6,2.82-6.35,8.95-3.59,13.68,2.98,5.1,8.72,5.77,13.68,3.59,9.32-4.09,18.22-8.94,26.72-14.55,9.42-6.22,3.56-20.89-7.71-18.28-3.67.85-7.08,2.43-10.09,4.69-1.34,1-2.59,2.03-3.71,3.27-.73.82-1.42,1.68-2.05,2.58-1.14,1.6-1.15,1.59-.03-.03l7.71-1.01-1-.29,5.98,4.6c.62,1.83.82,1.62.61-.61.04-.95.2-1.89.48-2.8l-19.29-5.32-1.01,4.82c-2.64,12.56,15.38,17.66,19.29,5.32,1.84-5.81,3.68-11.62,5.52-17.42h-19.29c.22,1.45-.2,2.8-.59,4.17l19.64,2.66c.77-11.63,4.23-22.76,9.95-32.9-6.09-2.57-12.18-5.14-18.28-7.71-2.65,8.41-4.93,16.92-6.82,25.54-2.8,12.71,14.86,17.31,19.29,5.32,3.74-10.13,6.65-20.5,8.73-31.09,1.04-5.29-1.5-10.79-6.98-12.3-4.91-1.35-11.26,1.66-12.3,6.98h0Z"/>
  <path class="cls-2" d="m490.76,196.79c-12.75-.77-25.59.83-37.79,4.63l7.71,18.28c5.79-2.47,11.58-4.94,17.38-7.4,4-1.7,5.66-7.42,4.6-11.29-1.19-4.31-5.24-7.22-9.64-7.34-7.92-.22-15.85.95-23.33,3.53-12.07,4.16-7,23.32,5.32,19.29,6.52-2.14,12.81-4.9,18.73-8.36,6.73-3.94,6.52-17.01-2.39-18.28-6.06-.86-11.88-.97-17.98-.63v20c14.53-1.93,26.62,2.71,40.11,7.43,5.1,1.78,10.94-2.03,12.3-6.98,1.51-5.51-1.87-10.51-6.98-12.3-14.99-5.24-29.27-10.29-45.42-8.14-5.35.71-10,4.09-10,10,0,5.18,4.58,10.31,10,10,4.13-.23,8.54-.68,12.66-.09l-2.39-18.28c-4.48,2.62-9.03,4.73-13.95,6.35l5.32,19.29c5.98-2.06,11.7-2.99,18.02-2.82l-5.05-18.63c-5.79,2.47-11.58,4.94-17.38,7.4-10.45,4.45-2.99,21.61,7.71,18.28s21.32-4.59,32.47-3.91c12.86.78,12.81-19.23,0-20h0Z"/>
  <path class="cls-2" d="m486.36,211.66l7.76,5.64c1.98,1.44,5.45,1.63,7.71,1.01s4.83-2.43,5.98-4.6c1.23-2.32,1.84-5.13,1.01-7.71s-2.38-4.36-4.6-5.98l-7.76-5.64c-1.98-1.44-5.45-1.63-7.71-1.01s-4.83,2.43-5.98,4.6c-1.23,2.32-1.84,5.13-1.01,7.71s2.38,4.36,4.6,5.98h0Z"/>
  <path class="cls-2" d="m432.54,182.48c-2.89,2.59-5.31,5.72-7.12,9.15-2.31,4.39-1.5,9.85,2.58,12.9,3.72,2.78,9.85,3.06,13.13-.78,6.46-7.56,9.17-17.48,6.01-27.13-2.84-8.66-13.24-9.31-18.28-2.39-6.65,9.13-11.19,24.67-1.97,33.65,9.22,8.99,23.38-5.14,14.14-14.14,1.97,1.92-.1,2.04.68.47.3-.6.5-2.28.79-3.22.76-2.47,2.12-4.57,3.64-6.66l-18.28-2.39c.93,2.84,1.08,5.38-.87,7.67l15.71,12.12c1.12-2.12,2.17-3.46,3.99-5.1,4.02-3.61,3.67-10.47,0-14.14-4-4-10.11-3.62-14.14,0h0Z"/>
  <path class="cls-2" d="m420.09,186.92c-2.3,5.12-4.06,10.56-3.88,16.26.11,3.39,1.34,6.88,3.72,9.35,3.17,3.3,6.96,3.69,11.27,3.09,5.2-.73,8.5-7.62,6.98-12.3-1.85-5.7-6.73-7.77-12.3-6.98l-.59.08h5.32l-.52-.19,4.41,2.57c.99.99,1.52,2.12,1.6,3.41.09.97.12.84.11-.39l.08-1.02c-.12.8-.12.84.01.13.23-.82.36-1.66.6-2.48.09-.31,1.11-2.9.45-1.43,2.14-4.76,1.53-10.98-3.59-13.68-4.37-2.31-11.39-1.51-13.68,3.59h0Z"/>
  <path class="cls-2" d="m434.38,188.85c-5.43-3.92-12.87-3.72-18.5-.37l10.09,17.27c3.36-2.19,7.55-4.24,10.34-7.15,4.18-4.37,4.87-11.47.49-16.02-6.21-6.44-17.65-4.25-24.54-.31-9.56,5.46-3.17,22.31,7.71,18.28,8.35-3.1,15.61-7.26,22.61-12.72,3.43-2.68,3.6-8.64,1.56-12.12-2.27-3.89-6.98-5.66-11.29-4.6-9.71,2.39-17.35,8.7-24.65,15.21l15.71,12.12c1.77-3.78,4.25-6.89,7.52-8.22,5-2.03,8.54-6.65,6.98-12.3-1.3-4.74-7.27-9.03-12.3-6.98-8.43,3.43-15.54,9.01-19.48,17.41-4.77,10.17,6.94,19.95,15.71,12.12,4.76-4.25,9.5-8.51,15.82-10.07-3.24-5.57-6.49-11.14-9.73-16.71-4.1,3.19-8.93,5.78-13.79,7.58,2.57,6.09,5.14,12.18,7.71,18.28,1.57-.9,2.65-1.2,4.12-.75l-4.41-2.57.6.5-2.93-7.07.1.96,1.37-5.05c1.59-2.47-.62-.16-1.61.49-1.24.81-2.47,1.62-3.71,2.42-4.52,2.95-6.41,8.86-3.59,13.68s9.03,6.37,13.68,3.59c-1,.6-4.05-1.34-1.69.37,4.38,3.16,11.14.76,13.68-3.59,2.95-5.04.8-10.51-3.59-13.68h0Z"/>
  <path class="cls-2" d="m408.85,201.86c-1.25,7.18.2,13.55,5.42,18.83s14.87,2.89,16.71-4.41c.99-3.93.77-7.99-1.73-11.32-6.9-9.21-20.07-3.76-18.28,7.71.56,3.6,1.12,7.19,1.68,10.79,6.09-2.57,12.18-5.14,18.28-7.71-2.68-5.69-5.61-11.33-10.09-15.85s-9.42-6.22-15.24-8.34l6.98,6.98-.13-.81-1.01,7.71c1.15-1.91,3.82-3.9,5.58-5.24,4.29-3.27,6.55-8.62,3.59-13.68-2.63-4.5-9.13-6.54-13.68-3.59-4.26,2.76-8.7,5.35-13.4,7.3-6.56,2.72-10.41,11-4.41,16.71,5.11,4.87,10.04,10.1,15.4,14.69,5.73,4.9,14.22,5.01,18.25-2.14,2.57-4.57,3.3-10.25,5.26-15.11.87-2.16,3.31-8.08,5.67-8.5h-5.32l1.01.34-4.41-2.57c-1.2-1.09-.6-2.34-.28.08.12.88.27,1.77.38,2.65.35,2.73.53,5.54,1.31,8.19,1.41,4.78,4.14,9.39,8.4,12.13s9.13,3.21,13.43.42c5.17-3.36,6.57-10.4,6.1-16.17l-17.07,7.07c6.42,5.56,14.11,8.75,22.71,8.14,5.39-.38,10-4.32,10-10,0-5.12-4.58-10.38-10-10-3.19.23-6.06-.11-8.56-2.28-5.94-5.15-17.82-2.25-17.07,7.07-.07-.81.27,2.38.22,2.49l3.59-3.59-.75.57,5.05-1.37c2.29,1.94,3.46,2.25,3.52.95l-.07-.1c.23-.52-.67-2.74-.79-3.53-.58-3.65-.68-7.27-1.98-10.77-3.17-8.51-12.36-11.88-20.06-6.74-5.27,3.52-9.29,8.78-11.91,14.5-1.36,2.97-2.56,6.01-3.61,9.11-.47,1.38-.9,2.77-1.34,4.15-.22.69-.44,1.38-.65,2.07-.8,2.02-.51,1.86.85-.48l7.07-2.93-.98-.08,5.05,1.37c-5.06-3.79-9.64-9.38-14.25-13.78l-4.41,16.71c6.36-2.64,12.4-5.57,18.18-9.31l-10.09-17.27c-7.02,5.35-15.21,11.11-13.63,20.93.57,3.53,3.92,5.87,6.98,6.98s5.1,1.48,7.22,4.02c2.67,3.19,4.39,7.24,6.15,10.98,2.1,4.45,8.3,5.93,12.49,4.09,4.89-2.15,6.58-6.72,5.79-11.8-.56-3.6-1.12-7.19-1.68-10.79-6.09,2.57-12.18,5.14-18.28,7.71l.04-.04v-5.32l-.32,1.27,16.71-4.41c-.6-.61-.08-.5-.27.63.93-5.31-1.43-10.77-6.98-12.3-4.82-1.32-11.37,1.64-12.3,6.98h0Z"/>
  <path class="cls-2" d="m506.42,217.63c12.87,0,12.89-20,0-20s-12.89,20,0,20h0Z"/>
  <path class="cls-2" d="m445.87,158.6l.65,18.15.31,8.6c.05,1.27.1,2.55.14,3.82.05.82.07,1.64.07,2.46-.06,1.75.36.8,1.27-2.85-4.18,3.43-3.56,10.59,0,14.14,4.13,4.13,9.96,3.44,14.14,0,5.99-4.92,4.52-13.64,4.28-20.44-.29-7.96-.57-15.92-.86-23.88-.46-12.83-20.46-12.89-20,0h0Z"/>
  <path class="cls-2" d="m446.79,146.91c-2.38,7.28-5.89,14.34-10.59,20.42-3.3,4.27-4.16,9.98,0,14.14,3.44,3.44,10.82,4.3,14.14,0,6.93-8.96,12.2-18.45,15.74-29.25,4.01-12.26-15.29-17.51-19.29-5.32h0Z"/>
  <path class="cls-2" d="m444.88,146.84c-7.97,6.96-15.6,14.26-22.91,21.91-8.89,9.31,5.23,23.47,14.14,14.14,7.31-7.65,14.94-14.95,22.91-21.91,4.07-3.55,3.64-10.5,0-14.14-4.04-4.04-10.06-3.56-14.14,0h0Z"/>
  <path class="cls-2" d="m438.5,150.28c-11.03,7.92-20.94,16.96-29.44,27.57-3.37,4.21-4.11,10.03,0,14.14,3.49,3.49,10.75,4.24,14.14,0,7.37-9.21,15.8-17.56,25.39-24.45,4.38-3.14,6.5-8.71,3.59-13.68-2.53-4.33-9.27-6.75-13.68-3.59h0Z"/>
  <path class="cls-2" d="m428.2,161.15c-11.45,7.32-18.38,19.47-18.5,33.11-.11,12.87,19.89,12.88,20,0,.06-6.47,3.1-12.33,8.6-15.84,10.81-6.91.79-24.23-10.09-17.27h0Z"/>
  <path class="cls-2" d="m421.69,250.23c32.84-6.68,65.14-15.7,96.69-27,7.22-2.59,4.11-14.18-3.19-11.57-31.55,11.3-63.85,20.32-96.69,27-7.56,1.54-4.36,13.11,3.19,11.57h0Z"/>
  <path class="cls-2" d="m385.61,206.3c-6.57,8.17-13.14,16.35-19.71,24.52-3.28,4.09-6.59,8.16-9.85,12.26-2.4,3.02-3.73,5.33-1.92,9.09,1.17,2.43,4.98,3.39,7.18,1.88l.24-.16c5.54-3.79.3-12.9-5.3-9.07l-.24.16,7.18,1.88-.26-.53.53,4.05c.34-1.87,4.75-5.79,6.16-7.54l8.01-9.96c5.13-6.39,10.26-12.77,15.4-19.16,4.19-5.22-3.19-12.69-7.42-7.42h0Z"/>
</svg>